<svg width="81" height="80" viewBox="0 0 81 80" fill="none" xmlns="http://www.w3.org/2000/svg">
<path fill-rule="evenodd" clip-rule="evenodd" d="M29.2579 31.2795L32.3749 31.8717L31.7829 28.7535C30.2373 20.6127 23.8725 14.2454 15.7348 12.6992L18.1458 0C27.6993 1.8152 35.7635 7.68 40.5077 15.7628C45.252 7.68 53.3162 1.8152 62.8697 0L65.2807 12.6992C57.143 14.2454 50.7782 20.6127 49.2326 28.7535L48.6406 31.8717L51.7576 31.2795C59.8953 29.7333 66.2601 23.366 67.8057 15.2252L80.5 17.6371C78.6859 27.1922 72.8256 35.2581 64.7487 40.0046C72.8176 44.7522 78.6716 52.814 80.4845 62.3629L67.7902 64.7748C66.2446 56.634 59.8798 50.2667 51.7421 48.7205L48.6251 48.1283L49.2171 51.2465C50.7627 59.3873 57.1275 65.7546 65.2652 67.3008L62.8542 80C53.3007 78.1848 45.2365 72.32 40.4923 64.2372C35.748 72.32 27.6838 78.1848 18.1303 80L15.7193 67.3008C23.857 65.7546 30.2218 59.3873 31.7674 51.2465L32.3594 48.1283L29.2424 48.7205C21.1047 50.2667 14.7399 56.634 13.1943 64.7748L0.5 62.3629C2.3141 52.8078 8.1744 44.7419 16.2513 39.9954C8.1824 35.2478 2.32842 27.186 0.515486 17.6371L13.2098 15.2252C14.7554 23.366 21.1202 29.7333 29.2579 31.2795ZM46.9813 33.573H34.0601V46.4992H46.9813V33.573Z" fill="#0A0A0A"/>
</svg>
